<mxfile host="127.0.0.1" modified="2021-10-24T12:38:03.482Z" agent="5.0 (Macintosh; Intel Mac OS X 10_15_7) AppleWebKit/605.1.15 (KHTML, like Gecko) Version/14.1.2 Safari/605.1.15" etag="41tWC9Ds28gCyIAAd5dz" version="14.9.3" type="embed"><diagram id="BdgNW0h4nEz1OByCykQE" name="Page-1"><mxGraphModel dx="2042" dy="909" grid="1" gridSize="10" guides="1" tooltips="1" connect="1" arrows="1" fold="1" page="1" pageScale="1" pageWidth="1600" pageHeight="900" background="#000000" math="0" shadow="0"><root><mxCell id="0"/><mxCell id="1" value="L0" parent="0"/><mxCell id="wjZZbFKahDjgnKDsRzdh-2" value="" style="shape=callout;whiteSpace=wrap;html=1;perimeter=calloutPerimeter;direction=south;size=20;position=0.42;base=28;position2=0.48;" parent="1" vertex="1"><mxGeometry x="20" y="560" width="440" height="290" as="geometry"/></mxCell><mxCell id="GNExBlfz7op0PSz0rF4g-1" value="L1" parent="0"/><mxCell id="wjZZbFKahDjgnKDsRzdh-1" value="" style="rounded=0;whiteSpace=wrap;html=1;fillColor=#3399FF;" parent="GNExBlfz7op0PSz0rF4g-1" vertex="1"><mxGeometry x="55" y="740" width="385" height="90" as="geometry"/></mxCell></root></mxGraphModel></diagram></mxfile>